<svg aria-hidden="true" style="position: absolute; width: 0; height: 0; overflow: hidden;" version="1.1" xmlns="http://www.w3.org/2000/svg" xmlns:xlink="http://www.w3.org/1999/xlink">
<defs>
<symbol id="icon-Frame" viewBox="0 0 32 32">
<path fill="#8000b3" style="fill: var(--color1, #8000b3)" d="M28 16c0 0.26-0.11 0.51-0.3 0.7s-0.44 0.3-0.7 0.3h-22c-0.27 0-0.52-0.11-0.71-0.3s-0.29-0.44-0.29-0.7c0-0.27 0.1-0.52 0.29-0.71s0.44-0.29 0.71-0.29h22c0.26 0 0.51 0.1 0.7 0.29s0.3 0.44 0.3 0.71zM5 9h22c0.26 0 0.51-0.11 0.7-0.3s0.3-0.44 0.3-0.7c0-0.27-0.11-0.52-0.3-0.71s-0.44-0.29-0.7-0.29h-22c-0.27 0-0.52 0.1-0.71 0.29s-0.29 0.44-0.29 0.71c0 0.26 0.1 0.51 0.29 0.7s0.44 0.3 0.71 0.3zM27 23h-22c-0.27 0-0.52 0.1-0.71 0.29s-0.29 0.44-0.29 0.71c0 0.26 0.1 0.51 0.29 0.7s0.44 0.3 0.71 0.3h22c0.26 0 0.51-0.11 0.7-0.3s0.3-0.44 0.3-0.7c0-0.27-0.11-0.52-0.3-0.71s-0.44-0.29-0.7-0.29z"></path>
</symbol>
<symbol id="icon-Vector" viewBox="0 0 41 32">
<path d="M15.52 31.040l4-4.091-8.594-8.571h30.217v-5.714h-30.217l8.594-8.594-4-4.069-15.52 15.52 15.52 15.52z"></path>
</symbol>
<symbol id="icon-logo" viewBox="0 0 100 32">
<path fill="#c82a7b" style="fill: var(--color1, #c82a7b)" d="M41.592 26.451c0 1.21-0.827 2.576-2.599 2.576h-1.444v0.983c0 0.609-0.421 1.116-0.944 1.116s-0.944-0.507-0.944-1.116v-4.964c0-0.741 0.359-1.171 0.999-1.171h2.334c1.764 0.008 2.599 1.374 2.599 2.576zM39.61 26.451c0-0.648-0.429-0.89-1.061-0.89h-0.999v1.787h0.991c0.64 0 1.069-0.242 1.069-0.898v0z"></path>
<path fill="#c82a7b" style="fill: var(--color1, #c82a7b)" d="M45.674 28.972h-2.092c0.156 0.515 0.593 0.718 1.171 0.718 0.258-0.008 0.515-0.039 0.757-0.101 0.055-0.008 0.117-0.016 0.172-0.016 0.179 0 0.351 0.062 0.484 0.18s0.226 0.273 0.25 0.453c0.023 0.172-0.008 0.351-0.101 0.5s-0.242 0.265-0.406 0.32c-0.429 0.125-0.874 0.195-1.327 0.187-1.85 0-2.864-1.061-2.864-2.521 0-1.452 1.116-2.505 2.677-2.505 1.413 0 2.271 0.726 2.271 1.967 0 0.531-0.351 0.82-0.991 0.82zM44.933 28.074c0-0.086-0.016-0.172-0.055-0.25-0.031-0.078-0.078-0.148-0.141-0.211-0.062-0.055-0.141-0.101-0.219-0.133s-0.164-0.039-0.25-0.039c-0.351 0-0.601 0.226-0.702 0.632h1.366z"></path>
<path fill="#c82a7b" style="fill: var(--color1, #c82a7b)" d="M51.262 27.184c0 0.539-0.375 0.999-1.132 0.968-0.663-0.031-0.976 0.375-0.976 1.311v0.741c-0.008 0.242-0.109 0.468-0.281 0.64-0.172 0.164-0.398 0.258-0.64 0.258s-0.468-0.094-0.64-0.258c-0.172-0.172-0.273-0.398-0.281-0.64v-3.013c0.008-0.242 0.109-0.468 0.281-0.632 0.172-0.172 0.398-0.265 0.64-0.265s0.468 0.094 0.64 0.265c0.172 0.164 0.273 0.39 0.281 0.632v0.39c0.125-0.593 0.468-1.303 1.194-1.303 0.515 0 0.913 0.328 0.913 0.905z"></path>
<path fill="#c82a7b" style="fill: var(--color1, #c82a7b)" d="M55.711 29.596c0 1.093-0.96 1.616-2.24 1.616-0.515 0-1.022-0.086-1.506-0.25-0.32-0.109-0.523-0.336-0.523-0.656 0-0.382 0.273-0.656 0.687-0.656 0.453 0 0.781 0.265 1.374 0.265 0.234 0 0.437-0.023 0.437-0.203 0-0.468-2.373-0.195-2.373-1.92 0-1.155 1.015-1.608 2.154-1.608 0.476 0.008 0.944 0.086 1.389 0.234 0.297 0.117 0.476 0.328 0.476 0.663s-0.281 0.64-0.679 0.64c-0.359 0-0.702-0.281-1.233-0.281-0.304 0-0.382 0.062-0.382 0.18 0 0.398 2.419 0.203 2.419 1.975z"></path>
<path fill="#c82a7b" style="fill: var(--color1, #c82a7b)" d="M56.141 28.699c0-1.397 1.124-2.513 2.638-2.513s2.638 1.116 2.638 2.513c0 1.405-1.124 2.513-2.638 2.513s-2.638-1.108-2.638-2.513zM59.575 28.699c0-0.546-0.343-0.898-0.796-0.898-0.461 0-0.804 0.351-0.804 0.898s0.343 0.89 0.804 0.89c0.453 0 0.796-0.351 0.796-0.89v0z"></path>
<path fill="#c82a7b" style="fill: var(--color1, #c82a7b)" d="M67.028 27.895v2.31c-0.008 0.242-0.109 0.468-0.281 0.64-0.172 0.164-0.398 0.258-0.64 0.258s-0.468-0.094-0.64-0.258c-0.172-0.172-0.273-0.398-0.281-0.64v-1.506c0-0.57-0.226-0.804-0.585-0.804s-0.671 0.234-0.671 0.804v1.514c-0.008 0.234-0.101 0.468-0.273 0.632-0.179 0.164-0.406 0.258-0.648 0.258s-0.468-0.094-0.64-0.258c-0.172-0.164-0.273-0.398-0.281-0.632v-3.020c0.008-0.242 0.109-0.468 0.281-0.632 0.172-0.172 0.398-0.265 0.64-0.265s0.468 0.094 0.648 0.265c0.172 0.164 0.265 0.39 0.273 0.632v-0.086c0.179-0.507 0.671-0.921 1.483-0.921 0.898 0 1.616 0.492 1.616 1.709z"></path>
<path fill="#c82a7b" style="fill: var(--color1, #c82a7b)" d="M72.866 27.895v2.31c-0.008 0.242-0.109 0.468-0.281 0.64-0.172 0.164-0.406 0.258-0.64 0.258-0.242 0-0.476-0.094-0.648-0.258-0.172-0.172-0.265-0.398-0.273-0.64v-1.506c0-0.57-0.226-0.804-0.585-0.804s-0.671 0.234-0.671 0.804v1.514c-0.008 0.234-0.109 0.468-0.281 0.632s-0.398 0.258-0.64 0.258c-0.242 0-0.476-0.094-0.648-0.258s-0.265-0.398-0.273-0.632v-3.020c0.008-0.242 0.101-0.468 0.273-0.632 0.172-0.172 0.406-0.265 0.648-0.265s0.468 0.094 0.64 0.265c0.172 0.164 0.273 0.39 0.281 0.632v-0.086c0.18-0.507 0.671-0.921 1.483-0.921 0.898 0 1.616 0.492 1.616 1.709z"></path>
<path fill="#c82a7b" style="fill: var(--color1, #c82a7b)" d="M77.487 28.972h-2.092c0.156 0.515 0.601 0.718 1.179 0.718 0.25-0.008 0.507-0.039 0.757-0.101 0.055-0.008 0.109-0.016 0.164-0.016 0.18 0 0.351 0.062 0.484 0.18 0.141 0.117 0.226 0.273 0.25 0.453 0.031 0.172-0.008 0.351-0.101 0.5s-0.234 0.265-0.406 0.32c-0.429 0.125-0.874 0.195-1.319 0.187-1.85 0-2.864-1.061-2.864-2.521 0-1.452 1.108-2.505 2.677-2.505 1.405 0 2.271 0.726 2.271 1.967-0.008 0.531-0.351 0.82-0.999 0.82zM76.745 28.074c0-0.086-0.016-0.172-0.055-0.25-0.031-0.078-0.078-0.148-0.141-0.211-0.062-0.055-0.141-0.101-0.219-0.133s-0.164-0.039-0.25-0.039c-0.351 0-0.609 0.226-0.702 0.632h1.366z"></path>
<path fill="#c82a7b" style="fill: var(--color1, #c82a7b)" d="M80.968 25.085v5.12c-0.008 0.242-0.101 0.468-0.273 0.64-0.172 0.164-0.406 0.258-0.648 0.258-0.234 0-0.468-0.094-0.64-0.258-0.172-0.172-0.273-0.398-0.281-0.64v-5.12c0.008-0.242 0.109-0.468 0.281-0.64 0.172-0.164 0.406-0.258 0.64-0.258 0.242 0 0.476 0.094 0.648 0.258 0.172 0.172 0.265 0.398 0.273 0.64z"></path>
<path fill="#850bb3" style="fill: var(--color2, #850bb3)" d="M99.364 9.795c-1.163 3.223-2.334 6.455-3.497 9.678-0.437 1.194-0.859 2.396-1.381 3.559-0.804 1.811-2.037 3.27-3.91 4.090-1.522 0.663-3.13 0.859-4.777 0.734-1.194-0.086-2.045-1.132-2.037-2.373 0-0.57 0.211-1.124 0.601-1.553 0.382-0.421 0.905-0.687 1.483-0.749 0.46-0.047 0.929-0.062 1.389-0.148 0.695-0.133 1.241-0.523 1.655-1.101 0.141-0.195 0.148-0.359 0.047-0.585-1.545-3.255-3.075-6.517-4.605-9.78-0.156-0.328-0.304-0.663-0.437-0.999-0.57-1.499 0.078-3.021 1.514-3.582 1.475-0.578 3.067 0.094 3.653 1.584 0.874 2.24 1.717 4.488 2.568 6.736 0.078 0.195 0.164 0.39 0.281 0.687 0.234-0.804 0.437-1.499 0.64-2.193 0.437-1.538 0.866-3.075 1.311-4.613 0.109-0.375 0.265-0.734 0.453-1.069 0.578-0.991 1.631-1.483 2.693-1.303 1.186 0.203 2.029 0.991 2.279 2.139 0.023 0.078 0.047 0.164 0.086 0.242l-0.008 0.601z"></path>
<path fill="#c82a7b" style="fill: var(--color1, #c82a7b)" d="M57.959 0.008c0.187 0.047 0.375 0.086 0.562 0.141 0.64 0.172 1.202 0.578 1.561 1.147 0.359 0.562 0.499 1.233 0.39 1.897-0.211 1.327-1.467 2.334-2.802 2.256-1.374-0.086-2.498-1.171-2.568-2.482-0.086-1.46 0.859-2.661 2.256-2.88 0.086-0.023 0.179-0.047 0.258-0.078h0.343z"></path>
<path fill="#850bb3" style="fill: var(--color2, #850bb3)" d="M41.093 14.525v0.515c0 1.35 0.008 2.7 0 4.051-0.008 0.648-0.25 1.272-0.687 1.756-0.429 0.484-1.022 0.796-1.67 0.874-1.374 0.172-2.654-0.656-2.989-1.959-0.062-0.265-0.086-0.546-0.086-0.82-0.008-5.284-0.008-10.568 0-15.844 0-1.709 1.124-2.825 2.818-2.825 2.443 0 4.878-0.008 7.321 0 1.335 0 2.646 0.179 3.887 0.702 2.17 0.921 3.325 2.646 3.723 4.886 0.523 2.989-0.421 5.44-2.896 7.259-0.039 0.023-0.070 0.062-0.179 0.164 0.523 0.788 1.030 1.592 1.592 2.365 0.414 0.562 0.898 1.085 1.374 1.608 0.898 0.991 0.929 2.404 0.062 3.45-0.898 1.077-2.302 1.35-3.426 0.624-0.398-0.265-0.749-0.593-1.054-0.96-1.436-1.655-2.622-3.489-3.684-5.393-0.203-0.359-0.429-0.484-0.827-0.468-0.937 0.031-1.873 0.008-2.81 0.008l-0.468 0.008zM41.124 4.862v5.097c1.381 0 2.732 0 4.082-0.008 0.281 0 0.554-0.031 0.827-0.078 1.296-0.25 1.975-1.124 1.967-2.513-0.008-1.35-0.702-2.201-2.006-2.42-0.39-0.055-0.781-0.086-1.171-0.078-1.218-0.008-2.443 0-3.7 0z"></path>
<path fill="#850bb3" style="fill: var(--color2, #850bb3)" d="M73.912 15.54c0.203 0.976 0.663 1.686 1.545 2.061 1.139 0.468 2.279 0.32 3.403-0.055 0.375-0.125 0.726-0.297 1.1-0.421 0.89-0.297 1.748 0.008 2.201 0.757 0.492 0.827 0.382 1.842-0.304 2.459-0.297 0.258-0.624 0.468-0.983 0.624-1.631 0.734-3.364 0.827-5.12 0.726-1.022-0.062-2.021-0.265-2.966-0.687-2.373-1.069-3.645-2.958-4.027-5.471-0.304-2.006-0.016-3.918 1.124-5.643 1.249-1.881 3.052-2.818 5.261-3.021 1.592-0.148 3.169-0.023 4.605 0.741 2.224 1.186 3.309 3.083 3.294 5.573-0.008 1.491-0.929 2.357-2.419 2.357-2.068 0-4.144 0-6.213 0h-0.499zM73.959 12.558h4.191c0.031-1.108-0.804-1.912-1.982-1.943-1.264-0.023-2.193 0.773-2.209 1.943v0z"></path>
<path fill="#850bb3" style="fill: var(--color2, #850bb3)" d="M62.353 10.841c0-2.771 0-5.541 0-8.32 0.008-1.327 0.827-2.287 2.115-2.49 1.538-0.25 2.88 0.882 2.88 2.451 0.008 3.114 0 6.221 0 9.335 0 2.498 0.008 4.987 0 7.485-0.008 1.264-0.952 2.256-2.271 2.412-1.163 0.14-2.349-0.663-2.646-1.803-0.055-0.273-0.086-0.546-0.078-0.827 0-2.747 0-5.495 0-8.242z"></path>
<path fill="#c82a7b" style="fill: var(--color1, #c82a7b)" d="M55.321 14.267c0-1.686-0.008-3.372 0.008-5.065 0-0.562 0.203-1.108 0.578-1.538 0.367-0.429 0.874-0.71 1.436-0.796 1.327-0.187 2.505 0.507 2.849 1.701 0.062 0.242 0.101 0.492 0.101 0.749 0.008 3.294 0.008 6.595 0 9.897-0.008 1.342-0.929 2.349-2.318 2.482-1.093 0.109-2.263-0.562-2.576-1.772-0.055-0.242-0.086-0.492-0.078-0.749 0-1.631 0-3.27 0-4.909z"></path>
<path fill="#c82a7b" style="fill: var(--color1, #c82a7b)" d="M11.247 18.381c-0.375-1.725 0.078-2.981 1.249-3.582-0.624-0.695-1.225-1.405-1.795-2.146-0.258-0.328-0.492-0.414-0.89-0.336-0.921 0.172-1.85 0.297-2.771 0.437l-0.46 0.070c0.031 0.203 0.055 0.359 0.078 0.515 0.211 1.335 0.421 2.669 0.617 4.004 0.094 0.64-0.047 1.296-0.406 1.842-0.351 0.546-0.89 0.937-1.514 1.116-1.335 0.382-2.724-0.242-3.255-1.475-0.101-0.258-0.172-0.523-0.211-0.796-0.632-4.066-1.264-8.133-1.889-12.191v22.111c0 0.866 0.343 1.694 0.952 2.31 0.617 0.609 1.444 0.952 2.31 0.952h10.732l-2.747-12.831z"></path>
<path fill="#c82a7b" style="fill: var(--color1, #c82a7b)" d="M9.951 2.599c-0.39 0.008-0.78 0.047-1.163 0.109-1.21 0.179-2.42 0.375-3.66 0.562 0.265 1.709 0.523 3.356 0.78 5.042 1.366-0.219 2.7-0.421 4.035-0.632 0.273-0.047 0.539-0.117 0.804-0.211 1.233-0.437 1.78-1.413 1.561-2.779-0.211-1.335-1.030-2.068-2.357-2.092z"></path>
<path fill="#c82a7b" style="fill: var(--color1, #c82a7b)" d="M23.22 19.957c-0.39-1.834-1.748-2.248-3.543-1.865l-2.81 0.601 1.077 5.026 2.81-0.601c1.795-0.382 2.864-1.327 2.466-3.161z"></path>
<path fill="#c82a7b" style="fill: var(--color1, #c82a7b)" d="M27.668 0.273h-11.348c0.476 0.64 0.851 1.35 1.093 2.115 0.976 2.872 0.421 5.432-1.748 7.61-0.031 0.031-0.062 0.078-0.148 0.195 0.64 0.695 1.257 1.413 1.936 2.084 0.382 0.39 0.804 0.734 1.225 1.085l1.249-0.273c4.979-1.069 8.125 2.279 8.859 5.682 0.726 3.395-0.773 7.742-5.76 8.804l-4.066 0.874 0.593 2.771h8.117c0.866 0 1.701-0.351 2.31-0.96 0.617-0.617 0.96-1.444 0.96-2.31v-24.414c0-0.866-0.343-1.694-0.96-2.302-0.609-0.617-1.444-0.96-2.31-0.96z"></path>
</symbol>
<symbol id="icon-x" viewBox="0 0 32 32">
<path stroke-linejoin="round" stroke-linecap="round" stroke-miterlimit="4" stroke-width="2.5" d="M24 8l-16 16"></path>
<path stroke-linejoin="round" stroke-linecap="round" stroke-miterlimit="4" stroke-width="2.5" d="M8 8l16 16"></path>
</symbol>
</defs>
</svg>
