<svg aria-hidden="true" style="width:0;height:0;position:absolute;overflow:hidden" xmlns="http://www.w3.org/2000/svg"><defs><symbol id="icon-Frame" viewBox="0 0 32 32"><path fill="#8000b3" style="fill:var(--color1,#8000b3)" d="M28 16c0 .26-.11.51-.3.7s-.44.3-.7.3H5c-.27 0-.52-.11-.71-.3S4 16.26 4 16a.99.99 0 0 1 1-1h22c.26 0 .51.1.7.29s.3.44.3.71zM5 9h22c.26 0 .51-.11.7-.3s.3-.44.3-.7c0-.27-.11-.52-.3-.71S27.26 7 27 7H5a.99.99 0 0 0-1 1c0 .26.1.51.29.7s.44.3.71.3zm22 14H5a.99.99 0 0 0-1 1c0 .26.1.51.29.7s.44.3.71.3h22c.26 0 .51-.11.7-.3s.3-.44.3-.7c0-.27-.11-.52-.3-.71S27.26 23 27 23z"/></symbol><symbol id="icon-Vector" viewBox="0 0 41 32"><path d="m15.52 31.04 4-4.091-8.594-8.571h30.217v-5.714H10.926L19.52 4.07l-4-4.069L0 15.521l15.52 15.52z"/></symbol><symbol id="icon-logo" viewBox="0 0 100 32"><path fill="#c82a7b" style="fill:var(--color1,#c82a7b)" d="M41.592 26.451c0 1.21-.827 2.576-2.599 2.576h-1.444v.983c0 .609-.421 1.116-.944 1.116s-.944-.507-.944-1.116v-4.964c0-.741.359-1.171.999-1.171h2.334c1.764.008 2.599 1.374 2.599 2.576zm-1.982 0c0-.648-.429-.89-1.061-.89h-.999v1.787h.991c.64 0 1.069-.242 1.069-.898zM45.674 28.972h-2.092c.156.515.593.718 1.171.718.258-.008.515-.039.757-.101a1.25 1.25 0 0 1 .172-.016c.179 0 .351.062.484.18s.226.273.25.453c.023.172-.008.351-.101.5s-.242.265-.406.32a4.458 4.458 0 0 1-1.327.187c-1.85 0-2.864-1.061-2.864-2.521 0-1.452 1.116-2.505 2.677-2.505 1.413 0 2.271.726 2.271 1.967 0 .531-.351.82-.991.82zm-.741-.898a.556.556 0 0 0-.055-.25.62.62 0 0 0-.141-.211.656.656 0 0 0-.469-.172c-.351 0-.601.226-.702.632h1.366zM51.262 27.184c0 .539-.375.999-1.132.968-.663-.031-.976.375-.976 1.311v.741a.947.947 0 0 1-.281.64.924.924 0 0 1-1.28 0 .947.947 0 0 1-.281-.64v-3.013a.912.912 0 0 1 .281-.632c.172-.172.398-.265.64-.265s.468.094.64.265c.172.164.273.39.281.632v.39c.125-.593.468-1.303 1.194-1.303.515 0 .913.328.913.905zM55.711 29.596c0 1.093-.96 1.616-2.24 1.616a4.687 4.687 0 0 1-1.506-.25c-.32-.109-.523-.336-.523-.656 0-.382.273-.656.687-.656.453 0 .781.265 1.374.265.234 0 .437-.023.437-.203 0-.468-2.373-.195-2.373-1.92 0-1.155 1.015-1.608 2.154-1.608.476.008.944.086 1.389.234.297.117.476.328.476.663s-.281.64-.679.64c-.359 0-.702-.281-1.233-.281-.304 0-.382.062-.382.18 0 .398 2.419.203 2.419 1.975zM56.141 28.699c0-1.397 1.124-2.513 2.638-2.513s2.638 1.116 2.638 2.513c0 1.405-1.124 2.513-2.638 2.513s-2.638-1.108-2.638-2.513zm3.434 0c0-.546-.343-.898-.796-.898-.461 0-.804.351-.804.898s.343.89.804.89c.453 0 .796-.351.796-.89zM67.028 27.895v2.31a.947.947 0 0 1-.281.64.924.924 0 0 1-1.28 0 .947.947 0 0 1-.281-.64v-1.506c0-.57-.226-.804-.585-.804s-.671.234-.671.804v1.514a.92.92 0 0 1-.273.632c-.179.164-.406.258-.648.258a.924.924 0 0 1-.921-.89v-3.02a.912.912 0 0 1 .281-.632c.172-.172.398-.265.64-.265s.468.094.648.265c.172.164.265.39.273.632v-.086c.179-.507.671-.921 1.483-.921.898 0 1.616.492 1.616 1.709zM72.866 27.895v2.31a.947.947 0 0 1-.281.64.938.938 0 0 1-.64.258.943.943 0 0 1-.648-.258.938.938 0 0 1-.273-.64v-1.506c0-.57-.226-.804-.585-.804s-.671.234-.671.804v1.514a.924.924 0 0 1-.921.89c-.242 0-.476-.094-.648-.258s-.265-.398-.273-.632v-3.02a.915.915 0 0 1 1.561-.632c.172.164.273.39.281.632v-.086c.18-.507.671-.921 1.483-.921.898 0 1.616.492 1.616 1.709zM77.487 28.972h-2.092c.156.515.601.718 1.179.718.25-.008.507-.039.757-.101.055-.008.109-.016.164-.016.18 0 .351.062.484.18a.696.696 0 0 1 .25.453.749.749 0 0 1-.507.82 4.442 4.442 0 0 1-1.319.187c-1.85 0-2.864-1.061-2.864-2.521 0-1.452 1.108-2.505 2.677-2.505 1.405 0 2.271.726 2.271 1.967-.008.531-.351.82-.999.82zm-.742-.898a.556.556 0 0 0-.055-.25.62.62 0 0 0-.141-.211.656.656 0 0 0-.469-.172c-.351 0-.609.226-.702.632h1.366zM80.968 25.085v5.12a.938.938 0 0 1-.273.64.943.943 0 0 1-.648.258.938.938 0 0 1-.64-.258.947.947 0 0 1-.281-.64v-5.12a.947.947 0 0 1 .281-.64.938.938 0 0 1 .64-.258c.242 0 .476.094.648.258a.938.938 0 0 1 .273.64z"/><path fill="#850bb3" style="fill:var(--color2,#850bb3)" d="M99.364 9.795c-1.163 3.223-2.334 6.455-3.497 9.678-.437 1.194-.859 2.396-1.381 3.559-.804 1.811-2.037 3.27-3.91 4.09-1.522.663-3.13.859-4.777.734-1.194-.086-2.045-1.132-2.037-2.373 0-.57.211-1.124.601-1.553a2.327 2.327 0 0 1 1.483-.749c.46-.047.929-.062 1.389-.148.695-.133 1.241-.523 1.655-1.101.141-.195.148-.359.047-.585a2294.121 2294.121 0 0 1-4.605-9.78 16.329 16.329 0 0 1-.437-.999c-.57-1.499.078-3.021 1.514-3.582 1.475-.578 3.067.094 3.653 1.584.874 2.24 1.717 4.488 2.568 6.736.078.195.164.39.281.687l.64-2.193c.437-1.538.866-3.075 1.311-4.613.109-.375.265-.734.453-1.069.578-.991 1.631-1.483 2.693-1.303 1.186.203 2.029.991 2.279 2.139.023.078.047.164.086.242l-.008.601z"/><path fill="#c82a7b" style="fill:var(--color1,#c82a7b)" d="M57.959.008c.187.047.375.086.562.141a2.7 2.7 0 0 1 1.951 3.044c-.211 1.327-1.467 2.334-2.802 2.256-1.374-.086-2.498-1.171-2.568-2.482-.086-1.46.859-2.661 2.256-2.88.086-.023.179-.047.258-.078h.343z"/><path fill="#850bb3" style="fill:var(--color2,#850bb3)" d="M41.093 14.525v.515c0 1.35.008 2.7 0 4.051a2.667 2.667 0 0 1-.687 1.756 2.654 2.654 0 0 1-1.67.874c-1.374.172-2.654-.656-2.989-1.959a3.631 3.631 0 0 1-.086-.82c-.008-5.284-.008-10.568 0-15.844 0-1.709 1.124-2.825 2.818-2.825 2.443 0 4.878-.008 7.321 0 1.335 0 2.646.179 3.887.702 2.17.921 3.325 2.646 3.723 4.886.523 2.989-.421 5.44-2.896 7.259-.039.023-.07.062-.179.164.523.788 1.03 1.592 1.592 2.365.414.562.898 1.085 1.374 1.608.898.991.929 2.404.062 3.45-.898 1.077-2.302 1.35-3.426.624a4.934 4.934 0 0 1-1.054-.96c-1.436-1.655-2.622-3.489-3.684-5.393-.203-.359-.429-.484-.827-.468-.937.031-1.873.008-2.81.008l-.468.008zm.031-9.663v5.097c1.381 0 2.732 0 4.082-.008.281 0 .554-.031.827-.078 1.296-.25 1.975-1.124 1.967-2.513-.008-1.35-.702-2.201-2.006-2.42a7.315 7.315 0 0 0-1.171-.078c-1.218-.008-2.443 0-3.7 0zM73.912 15.54c.203.976.663 1.686 1.545 2.061 1.139.468 2.279.32 3.403-.055.375-.125.726-.297 1.1-.421.89-.297 1.748.008 2.201.757.492.827.382 1.842-.304 2.459a3.809 3.809 0 0 1-.983.624c-1.631.734-3.364.827-5.12.726-1.022-.062-2.021-.265-2.966-.687-2.373-1.069-3.645-2.958-4.027-5.471-.304-2.006-.016-3.918 1.124-5.643 1.249-1.881 3.052-2.818 5.261-3.021 1.592-.148 3.169-.023 4.605.741 2.224 1.186 3.309 3.083 3.294 5.573-.008 1.491-.929 2.357-2.419 2.357h-6.712zm.047-2.982h4.191c.031-1.108-.804-1.912-1.982-1.943-1.264-.023-2.193.773-2.209 1.943zM62.353 10.841v-8.32c.008-1.327.827-2.287 2.115-2.49 1.538-.25 2.88.882 2.88 2.451.008 3.114 0 6.221 0 9.335 0 2.498.008 4.987 0 7.485-.008 1.264-.952 2.256-2.271 2.412-1.163.14-2.349-.663-2.646-1.803a3.636 3.636 0 0 1-.078-.827v-8.242z"/><path fill="#c82a7b" style="fill:var(--color1,#c82a7b)" d="M55.321 14.267c0-1.686-.008-3.372.008-5.065 0-.562.203-1.108.578-1.538.367-.429.874-.71 1.436-.796 1.327-.187 2.505.507 2.849 1.701.062.242.101.492.101.749.008 3.294.008 6.595 0 9.897-.008 1.342-.929 2.349-2.318 2.482-1.093.109-2.263-.562-2.576-1.772a2.956 2.956 0 0 1-.078-.749v-4.909zM11.247 18.381c-.375-1.725.078-2.981 1.249-3.582a36.796 36.796 0 0 1-1.795-2.146c-.258-.328-.492-.414-.89-.336-.921.172-1.85.297-2.771.437l-.46.07.078.515c.211 1.335.421 2.669.617 4.004a2.65 2.65 0 0 1-.406 1.842c-.351.546-.89.937-1.514 1.116-1.335.382-2.724-.242-3.255-1.475a3.556 3.556 0 0 1-.211-.796C1.257 13.964.625 9.897 0 5.839V27.95c0 .866.343 1.694.952 2.31a3.286 3.286 0 0 0 2.31.952h10.732l-2.747-12.831zM9.951 2.599c-.39.008-.78.047-1.163.109-1.21.179-2.42.375-3.66.562.265 1.709.523 3.356.78 5.042 1.366-.219 2.7-.421 4.035-.632.273-.047.539-.117.804-.211 1.233-.437 1.78-1.413 1.561-2.779-.211-1.335-1.03-2.068-2.357-2.092zM23.22 19.957c-.39-1.834-1.748-2.248-3.543-1.865l-2.81.601 1.077 5.026 2.81-.601c1.795-.382 2.864-1.327 2.466-3.161z"/><path fill="#c82a7b" style="fill:var(--color1,#c82a7b)" d="M27.668.273H16.32c.476.64.851 1.35 1.093 2.115.976 2.872.421 5.432-1.748 7.61-.031.031-.062.078-.148.195.64.695 1.257 1.413 1.936 2.084.382.39.804.734 1.225 1.085l1.249-.273c4.979-1.069 8.125 2.279 8.859 5.682.726 3.395-.773 7.742-5.76 8.804l-4.066.874.593 2.771h8.117a3.28 3.28 0 0 0 3.27-3.27V3.536c0-.866-.343-1.694-.96-2.302a3.246 3.246 0 0 0-2.31-.96z"/></symbol><symbol id="icon-x" viewBox="0 0 32 32"><path stroke-linejoin="round" stroke-linecap="round" stroke-width="2.5" d="M24 8 8 24M8 8l16 16"/></symbol></defs></svg>